<?xml version="1.0" encoding="utf-8"?>
<!-- Generator: Adobe Illustrator 22.1.0, SVG Export Plug-In . SVG Version: 6.00 Build 0)  -->
<svg version="1.1" id="Capa_1" xmlns="http://www.w3.org/2000/svg" xmlns:xlink="http://www.w3.org/1999/xlink" x="0px" y="0px"
	 viewBox="0 0 99 99" style="enable-background:new 0 0 99 99;" xml:space="preserve">
<metadata><?xpacket begin="﻿" id="W5M0MpCehiHzreSzNTczkc9d"?>
<x:xmpmeta xmlns:x="adobe:ns:meta/" x:xmptk="Adobe XMP Core 5.6-c143 79.161356, 2017/09/07-01:11:22        ">
   <rdf:RDF xmlns:rdf="http://www.w3.org/1999/02/22-rdf-syntax-ns#">
      <rdf:Description rdf:about=""/>
   </rdf:RDF>
</x:xmpmeta>
                                                                                                    
                                                                                                    
                                                                                                    
                                                                                                    
                                                                                                    
                                                                                                    
                                                                                                    
                                                                                                    
                                                                                                    
                                                                                                    
                                                                                                    
                                                                                                    
                                                                                                    
                                                                                                    
                                                                                                    
                                                                                                    
                                                                                                    
                                                                                                    
                                                                                                    
                                                                                                    
                           
<?xpacket end="w"?></metadata>
<style type="text/css">
	.st0{fill:#000FFF;}
	.st1{fill:none;stroke:#FFFFFF;stroke-width:2;stroke-miterlimit:10;}
</style>
<circle class="st0" cx="49.5" cy="49.5" r="49.5"/>
<g>
	<path class="st1" d="M47.8,75c-4.6-0.1-5.2-0.1-7.4-0.1c-3.9,0-7.8,0-11.5,0.1l-0.2-0.2c0.2-5.4,0.2-10.9,0.2-16.7V39
		c0-5.8,0-11.5-0.2-16.8l0.2-0.2h15.8h7.9c13.6,0,18.5,7.4,18.5,14.7c0,5.6-3.5,10.1-6.5,11.9v0.2c5.2,2.1,8.1,6.4,8.1,11.8
		c0,8.7-6.3,14.3-17.5,14.3C52.7,75.1,52.1,75.1,47.8,75z M52.6,45c5.4,0,8.9-2.9,8.9-7.1c0-4.7-3.3-7.1-10.4-7.1h-7.4
		c-1.7,0-3.5,0-5.2,0.1L38.3,31c-0.1,1.6-0.1,3.2-0.1,5.1c0,2.7,0,5.7,0.1,8.7l0.2,0.2H52.6z M63.1,59.7c0-3.9-3.2-5.9-9.7-5.9H38.6
		l-0.2,0.1c-0.1,2.5-0.1,4.9-0.1,7.5c0,1.5,0,3,0.1,4.5l0.2,0.1c4.6,0.1,10.2,0.1,14.7,0.1C59.5,66.1,63.1,63.7,63.1,59.7z"/>
</g>
</svg>
