<?xml version="1.0" encoding="utf-8"?>
<!-- Generator: Adobe Illustrator 22.1.0, SVG Export Plug-In . SVG Version: 6.00 Build 0)  -->
<svg version="1.1" id="Capa_1" xmlns="http://www.w3.org/2000/svg" xmlns:xlink="http://www.w3.org/1999/xlink" x="0px" y="0px"
	 viewBox="0 0 99 99" style="enable-background:new 0 0 99 99;" xml:space="preserve">
<metadata><?xpacket begin="﻿" id="W5M0MpCehiHzreSzNTczkc9d"?>
<x:xmpmeta xmlns:x="adobe:ns:meta/" x:xmptk="Adobe XMP Core 5.6-c143 79.161356, 2017/09/07-01:11:22        ">
   <rdf:RDF xmlns:rdf="http://www.w3.org/1999/02/22-rdf-syntax-ns#">
      <rdf:Description rdf:about=""/>
   </rdf:RDF>
</x:xmpmeta>
                                                                                                    
                                                                                                    
                                                                                                    
                                                                                                    
                                                                                                    
                                                                                                    
                                                                                                    
                                                                                                    
                                                                                                    
                                                                                                    
                                                                                                    
                                                                                                    
                                                                                                    
                                                                                                    
                                                                                                    
                                                                                                    
                                                                                                    
                                                                                                    
                                                                                                    
                                                                                                    
                           
<?xpacket end="w"?></metadata>
<style type="text/css">
	.st0{fill:#E94030;}
	.st1{fill:#FFFFFF;}
	.st2{fill:#0D3667;}
</style>
<circle class="st0" cx="49.5" cy="49.5" r="49.5"/>
<g>
	<circle class="st1" cx="30.4" cy="26.9" r="2.7"/>
	<path class="st2" d="M76.9,65.6c-3.5,0-6.4,2.2-7.5,5.3H47.2l14.9-18.6c0.9,0.3,1.8,0.5,2.8,0.5c4.4,0,8-3.6,8-8s-3.6-8-8-8
		c-3.6,0-6.7,2.4-7.7,5.7H42.2c-0.2,0.2-0.4,0.5-0.5,0.7c-1.5,1.8-2.9,3.4-4,4.6h19.8c0.1,0.4,0.3,0.7,0.5,1L43.6,66.9
		c-1.2-0.7-2.6-1.1-4.1-1.1c-4.4,0-8,3.6-8,8c0,4.4,3.6,8,8,8c3.5,0,6.5-2.3,7.6-5.5h22.3c1.1,3.1,4.1,5.3,7.5,5.3c4.4,0,8-3.6,8-8
		S81.3,65.6,76.9,65.6z M64.8,42.2c1.5,0,2.7,1.2,2.7,2.7c0,1.5-1.2,2.7-2.7,2.7c-1.5,0-2.7-1.2-2.7-2.7
		C62.2,43.4,63.4,42.2,64.8,42.2z M39.6,76.4c-1.5,0-2.7-1.2-2.7-2.7c0-1.5,1.2-2.7,2.7-2.7c1.5,0,2.7,1.2,2.7,2.7
		C42.2,75.2,41,76.4,39.6,76.4z M76.9,76.3c-1.5,0-2.7-1.2-2.7-2.7c0-1.5,1.2-2.7,2.7-2.7c1.5,0,2.7,1.2,2.7,2.7
		C79.6,75.1,78.4,76.3,76.9,76.3z"/>
	<path class="st1" d="M37.5,40c3.9-4.9,5.9-9.3,5.9-12.9v-0.3c0-7.3-6-13.3-13.3-13.3s-13.3,6-13.3,13.3v0.3c0,3.6,2,8,5.9,12.9
		c2.8,3.5,5.5,6,5.6,6.1l1.8,1.7l1.8-1.7C32,46,34.8,43.5,37.5,40z M26.9,36.7c-3-3.8-4.7-7.2-4.7-9.5v-0.3c0-4.4,3.6-8,8-8
		s8,3.6,8,8v0.3c0,2.3-1.7,5.7-4.7,9.5c-1.2,1.5-2.3,2.8-3.3,3.8C29.2,39.5,28,38.1,26.9,36.7z"/>
</g>
</svg>
