<?xml version="1.0" encoding="utf-8"?>
<!-- Generator: Adobe Illustrator 22.1.0, SVG Export Plug-In . SVG Version: 6.00 Build 0)  -->
<svg version="1.1" id="Capa_1" xmlns="http://www.w3.org/2000/svg" xmlns:xlink="http://www.w3.org/1999/xlink" x="0px" y="0px"
	 viewBox="0 0 99 99" style="enable-background:new 0 0 99 99;" xml:space="preserve">
<metadata><?xpacket begin="﻿" id="W5M0MpCehiHzreSzNTczkc9d"?>
<x:xmpmeta xmlns:x="adobe:ns:meta/" x:xmptk="Adobe XMP Core 5.6-c143 79.161356, 2017/09/07-01:11:22        ">
   <rdf:RDF xmlns:rdf="http://www.w3.org/1999/02/22-rdf-syntax-ns#">
      <rdf:Description rdf:about=""/>
   </rdf:RDF>
</x:xmpmeta>
                                                                                                    
                                                                                                    
                                                                                                    
                                                                                                    
                                                                                                    
                                                                                                    
                                                                                                    
                                                                                                    
                                                                                                    
                                                                                                    
                                                                                                    
                                                                                                    
                                                                                                    
                                                                                                    
                                                                                                    
                                                                                                    
                                                                                                    
                                                                                                    
                                                                                                    
                                                                                                    
                           
<?xpacket end="w"?></metadata>
<style type="text/css">
	.st0{fill:#000FFF;}
	.st1{fill:#FFFFFF;}
</style>
<circle class="st0" cx="49.5" cy="49.5" r="49.5"/>
<g>
	<path class="st1" d="M68,57.3c0,9.2-6.4,17.9-20.6,17.9C36.1,75.3,29,70.1,29,61.6c0-5.5,3.1-9.3,7.8-10.8V36.5
		c0-3.7,0-7.3-0.1-10.6l0.1-0.1h10h5.3c8.6,0,11.7,4.7,11.7,9.2c0,3.5-1.9,6.6-5,7.9v0.1C64.8,45.4,68,50.8,68,57.3z M62.2,57.4
		c0-7.3-4.6-11.6-12.3-11.6h-6.9l-0.1,0v4.4c5.5,0.4,9,3.5,10.5,8.8l0,0.1c-1.9,0.4-3.7,1-5.5,1.7l-0.1,0c-0.9-3.4-3-5.1-6.2-5.1
		c-4,0-6.4,2.6-6.4,6.1c0,4.9,4.6,8.1,12.6,8.1C57.1,70,62.2,65.2,62.2,57.4z M42.7,34.6c0,1.7,0,3.6,0,5.5l0.1,0.1h9
		c3.8,0,5.9-1.6,5.9-4.5c0-2.9-2.2-4.4-6.6-4.4h-5c-1.1,0-2.2,0-3.3,0l-0.1,0.1C42.7,32.4,42.7,33.5,42.7,34.6z"/>
</g>
</svg>
